<mxfile host="app.diagrams.net" agent="Mozilla/5.0 (Windows NT 10.0; Win64; x64) AppleWebKit/537.36 (KHTML, like Gecko) Chrome/135.0.0.0 Safari/537.36" version="26.2.13">
  <diagram name="第 1 页" id="2BHJ6eeiq_Yv8pMzbxQ_">
    <mxGraphModel dx="869" dy="518" grid="1" gridSize="10" guides="1" tooltips="1" connect="1" arrows="1" fold="1" page="1" pageScale="1" pageWidth="827" pageHeight="1169" math="0" shadow="0">
      <root>
        <mxCell id="0" />
        <mxCell id="1" parent="0" />
        <mxCell id="23cC6wZP_RoLbhTEeXlt-13" value="Server" style="shape=umlLifeline;perimeter=lifelinePerimeter;whiteSpace=wrap;container=1;dropTarget=0;collapsible=0;recursiveResize=0;outlineConnect=0;portConstraint=eastwest;newEdgeStyle={&quot;edgeStyle&quot;:&quot;elbowEdgeStyle&quot;,&quot;elbow&quot;:&quot;vertical&quot;,&quot;curved&quot;:0,&quot;rounded&quot;:0};size=65;" vertex="1" parent="1">
          <mxGeometry x="139" y="80" width="150" height="500" as="geometry" />
        </mxCell>
        <mxCell id="23cC6wZP_RoLbhTEeXlt-14" value="Database" style="shape=umlLifeline;perimeter=lifelinePerimeter;whiteSpace=wrap;container=1;dropTarget=0;collapsible=0;recursiveResize=0;outlineConnect=0;portConstraint=eastwest;newEdgeStyle={&quot;edgeStyle&quot;:&quot;elbowEdgeStyle&quot;,&quot;elbow&quot;:&quot;vertical&quot;,&quot;curved&quot;:0,&quot;rounded&quot;:0};size=65;" vertex="1" parent="1">
          <mxGeometry x="339" y="80" width="150" height="500" as="geometry" />
        </mxCell>
        <mxCell id="23cC6wZP_RoLbhTEeXlt-15" value="System" style="shape=umlLifeline;perimeter=lifelinePerimeter;whiteSpace=wrap;container=1;dropTarget=0;collapsible=0;recursiveResize=0;outlineConnect=0;portConstraint=eastwest;newEdgeStyle={&quot;edgeStyle&quot;:&quot;elbowEdgeStyle&quot;,&quot;elbow&quot;:&quot;vertical&quot;,&quot;curved&quot;:0,&quot;rounded&quot;:0};size=65;" vertex="1" parent="1">
          <mxGeometry x="539" y="80" width="150" height="500" as="geometry" />
        </mxCell>
        <mxCell id="23cC6wZP_RoLbhTEeXlt-16" value="" style="points=[];perimeter=orthogonalPerimeter;outlineConnect=0;targetShapes=umlLifeline;portConstraint=eastwest;newEdgeStyle={&quot;edgeStyle&quot;:&quot;elbowEdgeStyle&quot;,&quot;elbow&quot;:&quot;vertical&quot;,&quot;curved&quot;:0,&quot;rounded&quot;:0}" vertex="1" parent="23cC6wZP_RoLbhTEeXlt-15">
          <mxGeometry x="70" y="106" width="10" height="346" as="geometry" />
        </mxCell>
        <mxCell id="23cC6wZP_RoLbhTEeXlt-17" value="loop" style="shape=umlFrame;pointerEvents=0;dropTarget=0;strokeColor=#B3B3B3;height=20;width=40" vertex="1" parent="1">
          <mxGeometry x="403" y="207" width="231" height="150" as="geometry" />
        </mxCell>
        <mxCell id="23cC6wZP_RoLbhTEeXlt-18" value="[遍历时间范围]" style="text;strokeColor=none;fillColor=none;align=center;verticalAlign=middle;whiteSpace=wrap;" vertex="1" parent="23cC6wZP_RoLbhTEeXlt-17">
          <mxGeometry x="40" width="191" height="20" as="geometry" />
        </mxCell>
        <mxCell id="23cC6wZP_RoLbhTEeXlt-19" value="报表请求" style="verticalAlign=bottom;edgeStyle=elbowEdgeStyle;elbow=vertical;curved=0;rounded=0;endArrow=block;" edge="1" parent="1" source="23cC6wZP_RoLbhTEeXlt-13" target="23cC6wZP_RoLbhTEeXlt-16">
          <mxGeometry relative="1" as="geometry">
            <Array as="points">
              <mxPoint x="421" y="187" />
            </Array>
          </mxGeometry>
        </mxCell>
        <mxCell id="23cC6wZP_RoLbhTEeXlt-20" value="查询充电记录" style="verticalAlign=bottom;edgeStyle=elbowEdgeStyle;elbow=vertical;curved=0;rounded=0;endArrow=block;" edge="1" parent="1" source="23cC6wZP_RoLbhTEeXlt-16" target="23cC6wZP_RoLbhTEeXlt-14">
          <mxGeometry relative="1" as="geometry">
            <Array as="points">
              <mxPoint x="524" y="285" />
            </Array>
          </mxGeometry>
        </mxCell>
        <mxCell id="23cC6wZP_RoLbhTEeXlt-21" value="返回原始数据" style="verticalAlign=bottom;edgeStyle=elbowEdgeStyle;elbow=vertical;curved=0;rounded=0;dashed=1;dashPattern=2 3;endArrow=block;" edge="1" parent="1" source="23cC6wZP_RoLbhTEeXlt-14" target="23cC6wZP_RoLbhTEeXlt-16">
          <mxGeometry relative="1" as="geometry">
            <Array as="points">
              <mxPoint x="521" y="337" />
            </Array>
          </mxGeometry>
        </mxCell>
        <mxCell id="23cC6wZP_RoLbhTEeXlt-22" value="聚合统计指标" style="curved=1;endArrow=block;rounded=0;" edge="1" parent="1" source="23cC6wZP_RoLbhTEeXlt-16" target="23cC6wZP_RoLbhTEeXlt-16">
          <mxGeometry relative="1" as="geometry">
            <Array as="points">
              <mxPoint x="674" y="399" />
              <mxPoint x="674" y="429" />
            </Array>
          </mxGeometry>
        </mxCell>
        <mxCell id="23cC6wZP_RoLbhTEeXlt-23" value="JSON格式数据包" style="verticalAlign=bottom;edgeStyle=elbowEdgeStyle;elbow=vertical;curved=0;rounded=0;dashed=1;dashPattern=2 3;endArrow=block;" edge="1" parent="1" source="23cC6wZP_RoLbhTEeXlt-16" target="23cC6wZP_RoLbhTEeXlt-13">
          <mxGeometry relative="1" as="geometry">
            <Array as="points">
              <mxPoint x="424" y="481" />
            </Array>
          </mxGeometry>
        </mxCell>
        <mxCell id="23cC6wZP_RoLbhTEeXlt-24" value="统计完成信号" style="verticalAlign=bottom;edgeStyle=elbowEdgeStyle;elbow=vertical;curved=0;rounded=0;dashed=1;dashPattern=2 3;endArrow=block;" edge="1" parent="1" source="23cC6wZP_RoLbhTEeXlt-16" target="23cC6wZP_RoLbhTEeXlt-13">
          <mxGeometry relative="1" as="geometry">
            <Array as="points">
              <mxPoint x="424" y="533" />
            </Array>
          </mxGeometry>
        </mxCell>
      </root>
    </mxGraphModel>
  </diagram>
</mxfile>
